<svg width="324" height="77" viewBox="0 0 324 77" fill="none" xmlns="http://www.w3.org/2000/svg">
<path d="M54.1675 52.6899H32.0273V48.4661H35.3801V28.0078H32.0273V23.784H53.8554L54.7514 32.1415L50.5026 32.4918L49.6065 27.9978H40.3437V36.0049H53.1304V40.2287H40.3437V48.4561H49.9187L50.8147 43.9621L55.0636 44.3224L54.1675 52.6899Z" fill="#39384E"/>
<path d="M91.3295 52.6898H80.194V48.466H83.144L81.664 44.5125H70.8003L69.2397 48.466H72.5018V52.6898H61.4972V48.466H64.1854L72.9549 28.0177H68.7061V23.7939H78.0495L88.5104 48.466H91.3295V52.6898ZM80.3249 40.9092L76.5191 30.8602H76.2472L72.2199 40.9092H80.3249Z" fill="#39384E"/>
<path d="M123.357 52.6899H116.551L110.56 41.2597H105.778V48.4661H109.181V52.6899H97.4612V48.4661H100.814V28.0078H97.4612V23.784H110.389C113.993 23.784 116.692 24.5347 118.484 26.026C120.276 27.5274 121.172 29.6192 121.172 32.3216C121.172 34.2534 120.658 35.9049 119.631 37.2761C118.605 38.6573 117.175 39.6382 115.363 40.2287L119.793 48.4561H123.367V52.6899H123.357ZM115.886 32.4618C115.886 30.8303 115.413 29.6793 114.456 29.0187C113.5 28.3481 111.879 28.0178 109.583 28.0178H105.778V37.3061H109.533C111.919 37.3061 113.57 36.8857 114.497 36.035C115.423 35.1942 115.886 34.0032 115.886 32.4618Z" fill="#39384E"/>
<path d="M160.609 28.0078H157.256V52.6799L154.397 52.7199L138.298 32.672H138.117V48.4561H142.366V52.6799H130.243V48.4561H133.465V28.0078H129.8V23.784H137.09L152.434 42.9011H152.615V28.0078H148.366V23.784H160.619V28.0078H160.609Z" fill="#39384E"/>
<path d="M198.718 28.0078H195.365V52.6799L192.506 52.7199L176.406 32.672H176.225V48.4561H180.474V52.6799H168.352V48.4561H171.574V28.0078H167.899V23.784H175.188L190.532 42.9011H190.714V28.0078H186.465V23.784H198.718V28.0078V28.0078Z" fill="#39384E"/>
<path d="M228.46 52.6899H206.319V48.4661H209.672V28.0078H206.319V23.784H228.147L229.043 32.1415L224.795 32.4918L223.899 27.9978H214.636V36.0049H227.422V40.2287H214.636V48.4561H224.211L225.107 43.9621L229.356 44.3224L228.46 52.6899Z" fill="#39384E"/>
<path d="M258.332 44.1923C258.332 47.0648 257.325 49.2768 255.312 50.8182C253.298 52.3596 250.64 53.1303 247.327 53.1303C245.364 53.1303 243.461 52.89 241.629 52.4196C239.796 51.9492 238.337 51.2586 237.269 50.3778L238.075 43.7519L242.052 44.1522L241.961 47.7054C242.948 48.2058 243.844 48.5261 244.669 48.6663C245.485 48.7964 246.26 48.8664 246.975 48.8664C248.707 48.8664 250.147 48.5962 251.294 48.0457C252.442 47.4952 253.016 46.3942 253.016 44.7327C253.016 42.9211 252.362 41.72 251.053 41.1095C249.744 40.4989 248.234 40.0385 246.532 39.7082C245.163 39.438 243.773 39.0877 242.374 38.6373C240.974 38.1969 239.807 37.4562 238.89 36.4153C237.964 35.3743 237.501 33.853 237.501 31.8312C237.501 28.8085 238.538 26.6365 240.612 25.3153C242.686 23.9941 245.002 23.3336 247.569 23.3336C249.361 23.3336 251.093 23.6038 252.785 24.1343C254.466 24.6648 255.785 25.3654 256.741 26.2261L257.013 32.3216L253.036 32.6719L252.633 28.9386C251.798 28.4682 250.962 28.1379 250.126 27.9577C249.291 27.7775 248.485 27.6875 247.71 27.6875C246.311 27.6875 245.143 27.9677 244.226 28.5282C243.3 29.0887 242.837 29.9995 242.837 31.2406C242.837 32.6919 243.411 33.6828 244.559 34.1933C245.706 34.7138 246.995 35.1341 248.425 35.4644C249.643 35.7347 251.033 36.085 252.583 36.5354C254.134 36.9758 255.483 37.7765 256.631 38.9175C257.758 40.0686 258.332 41.8201 258.332 44.1923Z" fill="#39384E"/>
<path d="M292.051 33.2125L287.762 33.5728L286.866 28.0179H281.187V48.4662H286.06V52.69H271.521V48.4662H276.213V28.0078H270.495L269.598 33.5628L265.35 33.2025L266.246 23.774H291.155L292.051 33.2125Z" fill="#39384E"/>
</svg>
