<?xml version="1.0" encoding="UTF-8"?>
<svg width="114px" height="161px" viewBox="0 0 114 161" version="1.1" xmlns="http://www.w3.org/2000/svg" xmlns:xlink="http://www.w3.org/1999/xlink">
    <!-- Generator: Sketch 41.2 (35397) - http://www.bohemiancoding.com/sketch -->
    <title>black_vertical_alt</title>
    <desc>Created with Sketch.</desc>
    <defs></defs>
    <g id="Page-1" stroke="none" stroke-width="1" fill="none" fill-rule="evenodd">
        <g id="black_vertical_alt" fill="#252A2E">
            <g id="Logo" transform="translate(19.000000, 20.000000)">
                <path d="M10.6402901,90.028396 C10.6402901,87.2627782 8.55157177,85.7735994 6.07605373,85.7735994 L0.0999984741,85.7735994 L0.0999984741,99.3115886 L3.15571605,99.3115886 L3.15571605,94.7086723 L5.74727399,94.7086723 C8.91903147,94.7086723 10.6402901,92.581274 10.6402901,90.028396 Z M7.44919264,90.2217959 C7.44919264,91.3821949 6.69493324,92.1557943 5.66991405,92.1557943 L3.13637606,92.1557943 L3.13637606,88.3264774 L5.66991405,88.3264774 C6.69493324,88.3264774 7.44919264,88.9840368 7.44919264,90.2217959 Z M18.6083638,91.5949348 L18.6083638,88.6165771 L17.6800445,88.6165771 C16.6163454,88.6165771 15.5913262,89.0807368 15.0691466,89.9703761 L15.0691466,88.6165771 L12.1874889,88.6165771 L12.1874889,99.3115886 L15.1658465,99.3115886 L15.1658465,93.6256332 C15.1658465,92.1364543 16.0361458,91.5755948 17.5059847,91.5755948 C17.9121243,91.5755948 18.6083638,91.5949348 18.6083638,91.5949348 Z M24.661779,99.4469685 C27.7561765,99.4469685 29.9609348,97.59033 29.9609348,93.9737529 C29.9609348,90.3378358 27.7561765,88.4811972 24.661779,88.4811972 C21.5867214,88.4811972 19.3819632,90.3378358 19.3819632,93.9737529 C19.3819632,97.59033 21.5867214,99.4469685 24.661779,99.4469685 Z M24.661779,90.8986953 C25.957558,90.8986953 26.9245572,91.7689946 26.9245572,93.9737529 C26.9245572,96.1591711 25.957558,97.0294705 24.661779,97.0294705 C23.40468,97.0294705 22.4183408,96.1591711 22.4183408,93.9737529 C22.4183408,91.7689946 23.40468,90.8986953 24.661779,90.8986953 Z M37.3101289,99.2729087 L37.3101289,96.7973906 C37.3101289,96.7973906 36.6332295,96.8554106 36.01435,96.8554106 C35.3761305,96.8554106 35.1827306,96.6813507 35.1827306,96.0237913 L35.1827306,91.0147352 L37.4455088,91.0147352 L37.4455088,88.6165771 L35.1827306,88.6165771 L35.1827306,85.7735994 L32.185033,85.7735994 L32.185033,88.6165771 L30.6378342,88.6165771 L30.6378342,91.0147352 L32.185033,91.0147352 L32.185033,96.1785111 C32.185033,98.1705295 32.4751328,99.3889486 34.9699908,99.3889486 C36.3237897,99.3889486 37.3101289,99.2729087 37.3101289,99.2729087 Z M43.498924,99.4469685 C46.5933216,99.4469685 48.7980798,97.59033 48.7980798,93.9737529 C48.7980798,90.3378358 46.5933216,88.4811972 43.498924,88.4811972 C40.4238665,88.4811972 38.2191082,90.3378358 38.2191082,93.9737529 C38.2191082,97.59033 40.4238665,99.4469685 43.498924,99.4469685 Z M43.498924,90.8986953 C44.794703,90.8986953 45.7617022,91.7689946 45.7617022,93.9737529 C45.7617022,96.1591711 44.794703,97.0294705 43.498924,97.0294705 C42.241825,97.0294705 41.2554858,96.1591711 41.2554858,93.9737529 C41.2554858,91.7689946 42.241825,90.8986953 43.498924,90.8986953 Z M57.0369133,95.2695318 C56.8435134,96.5459708 55.9732141,97.0294705 55.0255549,97.0294705 C53.8071358,97.0294705 52.8401366,96.1591711 52.8401366,93.9737529 C52.8401366,91.7689946 53.7877959,90.8986953 55.0642349,90.8986953 C56.0699141,90.8986953 56.8435134,91.4015349 56.9982333,92.7166539 L59.9959309,92.7166539 C59.7445111,89.8930161 57.7331527,88.4811972 55.0448949,88.4811972 C51.9698373,88.4811972 49.7650791,90.3958557 49.7650791,94.0124328 C49.7650791,97.64835 52.0278573,99.4469685 55.1029148,99.4469685 C57.8491926,99.4469685 59.7058312,98.0351497 60.0152709,95.2695318 L57.0369133,95.2695318 Z M66.165386,99.4469685 C69.2597836,99.4469685 71.4645418,97.59033 71.4645418,93.9737529 C71.4645418,90.3378358 69.2597836,88.4811972 66.165386,88.4811972 C63.0903285,88.4811972 60.8855702,90.3378358 60.8855702,93.9737529 C60.8855702,97.59033 63.0903285,99.4469685 66.165386,99.4469685 Z M66.165386,90.8986953 C67.461165,90.8986953 68.4281642,91.7689946 68.4281642,93.9737529 C68.4281642,96.1591711 67.461165,97.0294705 66.165386,97.0294705 C64.908287,97.0294705 63.9219478,96.1591711 63.9219478,93.9737529 C63.9219478,91.7689946 64.908287,90.8986953 66.165386,90.8986953 Z M75.8933983,99.3115886 L75.8933983,85 L72.9150407,85 L72.9150407,99.3115886 L75.8933983,99.3115886 Z" id="Lettering"></path>
                <path d="M41.5674597,120.811589 L41.5674597,119.767229 C42.1089793,120.444129 43.0566385,120.946969 44.2363776,120.946969 C47.1373753,120.946969 49.1293937,119.09033 49.1293937,115.473753 C49.1293937,111.837836 47.0986953,109.981197 44.4104375,109.981197 C43.2306984,109.981197 42.1089793,110.484037 41.5674597,111.160936 L41.5674597,106.5 L38.5891021,106.5 L38.5891021,120.811589 L41.5674597,120.811589 Z M56.5752878,113.288335 L59.4956255,113.288335 C59.4956255,112.456715 59.0701458,109.981197 54.8927091,109.981197 C52.3398312,109.981197 50.3091328,111.122256 50.3091328,113.327015 C50.3091328,115.821873 52.3204912,116.344052 54.6219493,116.653492 L55.2021489,116.730852 C56.0337682,116.846892 56.8073676,117.020952 56.8073676,117.678511 C56.8073676,118.452111 55.9757483,118.76155 55.028089,118.76155 C54.0030698,118.76155 53.0940906,118.452111 53.0940906,117.427091 L50.0963929,117.427091 C50.0963929,117.987951 50.3478127,120.946969 54.8540292,120.946969 C58.857406,120.946969 59.8244052,118.99363 59.8244052,117.349731 C59.8244052,113.036915 53.2874904,114.758173 53.2874904,113.114275 C53.2874904,112.379355 54.0997698,112.147276 54.8540292,112.147276 C55.8790483,112.147276 56.5752878,112.553415 56.5752878,113.288335 Z M27.1204912,113.617114 L30.0021489,113.617114 C30.0021489,113.191635 30.1181888,112.301995 31.8781274,112.301995 C33.3092863,112.301995 33.657406,112.804835 33.657406,113.539754 L33.657406,113.907214 L30.1375288,114.410054 C29.1511896,114.545434 26.7723715,115.144973 26.7723715,117.581811 C26.7723715,119.72855 28.4162701,120.946969 30.6210284,120.946969 C32.4583269,120.946969 33.2706063,120.328089 33.7347659,119.844589 L33.7347659,120.811589 L36.8871834,120.811589 C36.8871834,120.811589 36.6551036,119.999309 36.6551036,119.22571 L36.6551036,113.462394 C36.6551036,111.915196 35.8041443,109.981197 31.8781274,109.981197 C27.8167306,109.981197 27.1591711,112.050576 27.1204912,113.617114 Z M25.5926324,120.811589 L25.5926324,118.142671 L19.0557176,118.142671 L19.0557176,107.273599 L16,107.273599 L16,120.811589 L25.5926324,120.811589 Z M43.8302379,112.398695 C45.1260169,112.398695 46.0930161,113.268995 46.0930161,115.473753 C46.0930161,117.659171 45.1260169,118.52947 43.8302379,118.52947 C42.3797391,118.52947 41.5867997,117.852571 41.5867997,115.473753 C41.5867997,113.075595 42.3797391,112.398695 43.8302379,112.398695 Z M33.657406,116.711512 C33.657406,117.620491 33.0385265,118.78089 31.2785879,118.78089 C30.1375288,118.78089 29.828089,118.065311 29.828089,117.581811 C29.828089,116.904912 30.3502686,116.479432 31.065848,116.344052 C31.8007675,116.189332 33.657406,115.957252 33.657406,115.957252 L33.657406,116.711512 Z" id="Combined-Shape"></path>
                <path d="M35.1843393,53.5274127 C35.9026455,53.9421317 36.4849476,54.9459136 36.4849476,55.781617 L36.4849476,71.5324382 C36.4849476,72.3626819 35.9073691,72.7022957 35.1843393,72.2848961 L21.5571214,64.4180075 C20.8388153,64.0033348 20.2565131,62.9995532 20.2565131,62.1638033 L20.2565131,46.4121039 C20.2565131,45.5818139 20.8340917,45.2421999 21.5571214,45.659646 L35.1843393,53.5274127 Z M55.749641,39.923179 C55.7495947,40.7532453 55.1717626,41.7597234 54.4484624,42.1773041 L40.8161472,50.0476062 C40.0975724,50.4624588 39.5150524,50.1313573 39.5150524,49.295879 L39.5150524,33.5492999 C39.5150524,32.7192798 40.0928842,31.712802 40.816231,31.2951748 L54.4494243,23.4239945 C55.1680454,23.0090957 55.7505657,23.3401969 55.7505191,24.1757218 L55.749641,39.923179 Z M52.933764,19.3043166 C53.6546455,19.7205967 53.6609532,20.391815 52.9372931,20.8096212 L39.2981946,28.6841744 C38.5792622,29.0992511 37.4100006,29.0971384 36.6911059,28.6820712 L3.8077597,9.6962615 C3.08683675,9.28002328 3.08056805,8.60876554 3.80431915,8.19086742 L17.4451327,0.314581796 C18.1641554,-0.100586171 19.3334566,-0.0985134318 20.0523099,0.316595549 L52.933764,19.3043166 Z M17.2264084,60.4199927 C17.2264084,61.2446765 16.6489019,61.5797817 15.9259624,61.1623805 L2.30044594,53.2954602 C1.58222948,52.8807859 1,51.867378 1,51.0371819 L1,13.0627397 C1,12.2302013 1.58630152,11.8937941 2.3050121,12.3087382 L35.1799355,31.2889196 C35.9006738,31.7050345 36.4849476,32.7099117 36.4849476,33.5455698 L36.4849476,49.295536 C36.4849476,50.1257347 35.9085778,50.4660196 35.1914363,50.0520317 L18.5199197,40.42798 C17.8055331,40.0155824 17.2264084,40.3466261 17.2264084,41.1744901 L17.2264084,60.4199927 Z M58.7663773,22.4242477 C58.7664525,21.5995276 59.3442718,20.5973829 60.0675266,20.1798015 L73.6989868,12.309486 C74.4175165,11.8946328 75,12.2355925 75,13.0658094 L75,51.0411993 C75,51.8737584 74.4136985,52.8871793 73.6949879,53.3021235 L40.8200645,72.2823049 C40.0993262,72.6984197 39.5150524,72.3681611 39.5150524,71.532457 L39.5150524,55.7816225 C39.5150524,54.9513781 40.0911497,53.9456988 40.8079522,53.5318238 L57.4715875,43.9103963 C58.1856363,43.4981112 58.7645479,42.4985007 58.7646234,41.6706001 L58.7663773,22.4242477 Z M42.3191202,9.68812933 C41.6002318,9.27300507 41.5954685,8.60279638 42.3190395,8.18508102 L55.9564579,0.312240014 C56.6753017,-0.102746382 57.8360493,-0.105438921 58.5596186,0.312322034 L72.1970046,8.18602241 C72.9158467,8.60105411 72.9206097,9.27126219 72.1970853,9.68907072 L58.560545,17.5636679 C57.8417474,17.9787469 56.6810001,17.98144 55.9573843,17.5635859 L42.3191202,9.68812933 Z" id="Shape"></path>
            </g>
        </g>
    </g>
</svg>